<svg width="38" height="38" viewBox="0 0 38 38" fill="none" xmlns="http://www.w3.org/2000/svg">
<path d="M27.6983 17.8124C27.7577 17.9015 27.9061 17.8421 27.9061 17.7531C28.0842 16.1499 28.5593 11.7265 31.7061 10.7765C32.7155 10.4796 33.7249 11.1921 33.8436 12.1124C34.0514 13.5968 32.3592 17.4265 32.5077 20.9296C32.5374 21.4937 33.4874 27.4609 30.9639 30.9937C28.4405 34.5265 22.4436 38.1187 16.4764 32.6562C13.3889 29.8359 13.3889 28.7078 9.55925 24.7593C8.78738 23.9874 5.69988 20.6031 4.86863 19.564C3.77019 18.1687 5.52175 16.3281 6.85769 17.2781C7.48113 17.7234 13.003 22.3546 13.2108 22.5624C13.6264 22.9187 14.1311 22.414 13.8343 22.0578C10.4499 17.6046 7.18425 13.5968 6.29363 12.0531C5.403 10.5093 7.5405 8.84682 8.78738 10.1828C9.64832 11.0734 16.0311 18.5249 16.328 18.8515C16.6249 19.1781 17.1296 18.7624 16.9514 18.3468C16.7436 17.9609 11.578 8.96557 10.6577 6.91713C9.85613 5.1062 12.528 3.41401 13.7749 5.28432C14.7843 6.7687 20.4249 16.1499 20.6327 16.4765C20.8999 16.9515 21.4936 16.6546 21.2561 16.1203C21.078 15.7343 17.6046 6.23432 17.3374 5.25463C16.8624 3.53276 19.3264 2.10776 20.4843 4.06713C22.0577 6.7687 25.1749 15.0218 27.6983 17.8124Z" fill="#FFCA28"/>
<mask id="mask0_149_176" style="mask-type:luminance" maskUnits="userSpaceOnUse" x="4" y="3" width="30" height="33">
<path d="M27.6983 17.8124C27.7577 17.9015 27.9061 17.8421 27.9061 17.7531C28.0842 16.1499 28.5593 11.7265 31.7061 10.7765C32.7155 10.4796 33.7249 11.1921 33.8436 12.1124C34.0514 13.5968 32.3592 17.4265 32.5077 20.9296C32.5374 21.4937 33.4874 27.4609 30.9639 30.9937C28.4405 34.5265 22.4436 38.1187 16.4764 32.6562C13.3889 29.8359 13.3889 28.7078 9.55925 24.7593C8.78738 23.9874 5.69988 20.6031 4.86863 19.564C3.77019 18.1687 5.52175 16.3281 6.85769 17.2781C7.48113 17.7234 13.003 22.3546 13.2108 22.5624C13.6264 22.9187 14.1311 22.414 13.8343 22.0578C10.4499 17.6046 7.18425 13.5968 6.29363 12.0531C5.403 10.5093 7.5405 8.84682 8.78738 10.1828C9.64832 11.0734 16.0311 18.5249 16.328 18.8515C16.6249 19.1781 17.1296 18.7624 16.9514 18.3468C16.7436 17.9609 11.578 8.96557 10.6577 6.91713C9.85613 5.1062 12.528 3.41401 13.7749 5.28432C14.7843 6.7687 20.4249 16.1499 20.6327 16.4765C20.8999 16.9515 21.4936 16.6546 21.2561 16.1203C21.078 15.7343 17.6046 6.23432 17.3374 5.25463C16.8624 3.53276 19.3264 2.10776 20.4843 4.06713C22.0577 6.7687 25.1749 15.0218 27.6983 17.8124Z" fill="white"/>
</mask>
<g mask="url(#mask0_149_176)">
<path d="M27.0748 17.8718C23.3936 20.8702 21.7608 25.1452 24.7889 29.5984C25.0561 29.9843 25.6201 29.6281 25.3826 29.1827C24.1358 26.9562 23.2154 22.9484 27.5201 18.7624C28.0248 18.9999 28.6186 18.4952 28.6483 18.0499C28.9748 15.2593 29.3014 12.9437 31.3795 11.6374C32.1811 11.1327 33.2201 11.489 33.2795 12.7062C33.2795 12.7062 33.9326 12.7656 34.1998 12.7952C34.3483 12.1718 34.6451 11.0437 34.6451 11.014C34.6451 10.9843 31.142 9.67805 31.142 9.67805L28.0842 12.7062L27.0748 17.8718ZM21.1373 16.6546C21.5529 16.4468 21.9092 16.1202 21.7311 15.6749C21.5529 15.1999 18.2576 6.2343 18.0498 5.55149C17.6342 4.30462 18.6733 3.32493 19.5936 3.74055C20.0983 3.97805 20.3358 3.17649 20.0686 3.05774C19.8014 2.93899 19.1779 2.37493 17.9311 2.99837C15.7045 4.12649 17.0108 6.62024 17.6045 8.07493C18.1983 9.52962 21.1373 16.6546 21.1373 16.6546ZM16.8326 18.8812C17.3373 18.5249 17.7233 18.2281 17.2779 17.5156C16.9811 17.0406 11.9639 7.92649 11.4592 7.03587C10.717 5.7593 12.2608 4.63118 13.1217 5.43274C13.5076 5.78899 14.1014 5.01712 13.8045 4.72024C13.5076 4.42337 12.4686 3.56243 11.1623 4.42337C9.85607 5.2843 9.82638 6.32337 10.0045 6.76868C10.1529 7.21399 16.8326 18.8812 16.8326 18.8812ZM13.8639 22.5327C14.2201 21.9984 14.4576 21.7312 13.9529 21.0484C13.4483 20.3656 7.45138 12.5281 7.12482 12.0827C6.29357 10.9843 7.51075 10.0343 8.1045 10.3609C8.66857 10.6874 8.99513 9.76712 8.52013 9.52962C8.04513 9.29212 7.27326 9.02493 6.56076 9.52962C5.84826 10.0343 5.43263 11.0734 5.55138 11.6671C5.64044 12.2609 13.8639 22.5327 13.8639 22.5327Z" fill="#FAA700"/>
<path d="M27.5499 33.725C22.7405 36.0109 19.1483 34.2296 16.8327 31.9734C14.1905 29.3906 12.9436 27.0156 11.1921 25.4125C10.5983 24.8484 5.90769 19.8609 5.34363 19C4.89832 18.2875 5.78894 17.0703 6.76863 17.7531C7.39207 18.1687 7.68894 17.2781 7.27332 17.0406C6.85769 16.8031 5.93738 16.2984 4.95769 17.0406C3.97801 17.7531 3.94832 19.0297 4.18582 19.4453C4.42332 19.8609 18.8514 36.4265 18.8514 36.4265L24.7296 36.2781L27.8764 34.3484L27.5499 33.725Z" fill="#FAA700"/>
</g>
<mask id="mask1_149_176" style="mask-type:luminance" maskUnits="userSpaceOnUse" x="4" y="3" width="30" height="33">
<path d="M27.6983 17.8124C27.7577 17.9015 27.9061 17.8421 27.9061 17.7531C28.0842 16.1499 28.5593 11.7265 31.7061 10.7765C32.7155 10.4796 33.7249 11.1921 33.8436 12.1124C34.0514 13.5968 32.3592 17.4265 32.5077 20.9296C32.5374 21.4937 33.4874 27.4609 30.9639 30.9937C28.4405 34.5265 22.4436 38.1187 16.4764 32.6562C13.3889 29.8359 13.3889 28.7078 9.55925 24.7593C8.78738 23.9874 5.69988 20.6031 4.86863 19.564C3.77019 18.1687 5.52175 16.3281 6.85769 17.2781C7.48113 17.7234 13.003 22.3546 13.2108 22.5624C13.6264 22.9187 14.1311 22.414 13.8343 22.0578C10.4499 17.6046 7.18425 13.5968 6.29363 12.0531C5.403 10.5093 7.5405 8.84682 8.78738 10.1828C9.64832 11.0734 16.0311 18.5249 16.328 18.8515C16.6249 19.1781 17.1296 18.7624 16.9514 18.3468C16.7436 17.9609 11.578 8.96557 10.6577 6.91713C9.85613 5.1062 12.528 3.41401 13.7749 5.28432C14.7843 6.7687 20.4249 16.1499 20.6327 16.4765C20.8999 16.9515 21.4936 16.6546 21.2561 16.1203C21.078 15.7343 17.6046 6.23432 17.3374 5.25463C16.8624 3.53276 19.3264 2.10776 20.4843 4.06713C22.0577 6.7687 25.1749 15.0218 27.6983 17.8124Z" fill="white"/>
</mask>
<g mask="url(#mask1_149_176)">
<path d="M33.1015 10.6875C33.2499 11.0734 33.428 11.7562 33.2499 12.6765C32.5671 16.1203 31.439 18.139 31.7952 21.85C32.4483 28.975 29.9546 34.3781 21.3749 35.4468C20.514 35.5656 20.7515 36.2187 21.1968 36.1593C21.4046 36.1296 27.5202 35.0312 27.5202 35.0312C27.5202 35.0312 33.1905 30.1921 33.1905 30.1328C33.1905 30.0734 34.6155 11.6078 34.6155 11.6078L33.1015 10.6875ZM18.2577 3.11714C18.6436 3.17651 19.4749 3.50308 20.0686 4.66089C20.6624 5.8187 23.5718 12.4984 23.9577 13.2109C24.3436 13.9234 25.9171 17.4562 27.1936 18.525C27.6093 18.8515 27.8171 18.2875 27.8171 18.2875L27.8468 17.3671L20.9593 1.69214L18.6733 1.7812L18.2577 3.11714ZM21.1374 16.6546C20.5733 16.9218 20.1577 17.1593 19.7421 16.5062C19.4749 16.0312 16.5952 11.1031 12.9733 5.3437C12.6765 4.89839 11.9936 4.51245 11.4593 4.72026C10.9249 4.95776 10.8061 4.27495 11.0733 4.12651C11.3405 3.97808 13.003 3.05776 14.1311 4.95776C15.2593 6.85776 21.1374 16.6546 21.1374 16.6546ZM16.8327 18.8812C16.3874 19.2078 15.9421 19.6234 15.378 18.9406C14.8436 18.2875 8.7577 11.0437 8.40145 10.5984C8.0452 10.1531 7.30302 9.76714 6.73895 10.1234C6.35302 10.3609 5.99677 9.64839 6.23427 9.47026C6.47177 9.29214 7.8077 8.10464 8.69833 9.11401C9.58895 10.1234 16.8327 18.8812 16.8327 18.8812ZM13.864 22.5328C13.478 22.9484 13.0624 23.1859 12.4983 22.7703C11.9343 22.3546 6.88739 18.1093 6.56083 17.8125C6.23427 17.5156 5.28427 17.0703 4.57177 17.7828C4.30458 18.05 3.82958 17.6046 4.09677 17.3375C4.36395 17.0406 5.81864 15.5562 6.97645 16.5359C8.13427 17.5156 13.864 22.5328 13.864 22.5328Z" fill="#B55E19"/>
</g>
<path d="M3.14698 24.1359C4.06729 26.8672 5.46261 28.5594 7.74854 30.1031C8.16417 30.4 7.92667 30.9937 7.45167 30.7859C5.31417 29.925 2.93917 28.025 2.37511 24.2547C2.28604 23.75 2.99854 23.6609 3.14698 24.1359ZM4.92823 22.5031C5.84854 25.2344 7.24386 26.9265 9.52979 28.4703C9.94542 28.7672 9.70792 29.3609 9.23292 29.1531C7.09542 28.2922 4.72042 26.3922 4.15636 22.6219C4.09698 22.1172 4.77979 22.0281 4.92823 22.5031ZM27.7579 10.2719C27.0454 7.48123 25.7392 5.69998 23.572 4.03748C23.1564 3.7406 23.4532 3.14685 23.9282 3.35467C26.0064 4.33435 28.2626 6.41248 28.5595 10.2125C28.5892 10.7172 27.8767 10.7765 27.7579 10.2719ZM29.6876 8.84685C28.9751 6.05623 27.6689 4.27498 25.5017 2.61248C25.086 2.3156 25.3829 1.72185 25.8579 1.92967C27.936 2.90935 30.1923 4.98748 30.4892 8.78748C30.5189 9.26248 29.836 9.32185 29.6876 8.84685Z" fill="#B0BEC5"/>
</svg>
